
<svg xmlns="http://www.w3.org/2000/svg" viewBox="0 0 220 40" width="220" height="40">
  <!-- Stethoscope icon based on Lucide design -->
  <g transform="translate(0, 5)">
    <path d="M4.5 12.5v-9a1.5 1.5 0 0 1 3 0v9a4.5 4.5 0 1 0 9 0v-9a1.5 1.5 0 0 1 3 0v9a7.5 7.5 0 0 1-13.5 4.5" stroke="#22C55E" stroke-width="2" stroke-linecap="round" stroke-linejoin="round" fill="none"/>
    <path d="M24 12.5v-8a2 2 0 0 0-2-2h-2v10" stroke="#22C55E" stroke-width="2" stroke-linecap="round" stroke-linejoin="round" fill="none"/>
    <path d="M19 14a2 2 0 1 0 4 0" stroke="#22C55E" stroke-width="2" stroke-linecap="round" stroke-linejoin="round" fill="none"/>
  </g>
  
  <!-- DoctorDial text -->
  <text x="35" y="25" font-family="sans-serif" font-size="20" font-weight="500" fill="#333333">DoctorDial</text>
</svg>
