
<svg xmlns="http://www.w3.org/2000/svg" width="32" height="32" viewBox="0 0 24 24" fill="none" stroke="#10B981" stroke-width="2" stroke-linecap="round" stroke-linejoin="round">
  <path d="M19 4H5c-1.13 0-2.17.59-2.75 1.55A3.02 3.02 0 0 0 2 7.23v9.54c0 .63.2 1.24.57 1.74.37.5.89.87 1.49 1.06.31.1.63.15.94.15V21h2v-1.28c.2 0 .41-.02.61-.07C8.19 19.44 9 18.75 9 17.23V7c0-.63-.2-1.24-.57-1.74A2.99 2.99 0 0 0 6.93 4.15C6.62 4.05 6.3 4 6 4"/>
  <path d="M18 2a3 3 0 0 0-3 3v1"/>
  <path d="M22 2a3 3 0 0 0-3 3v1"/>
  <path d="M19.5 7a.5.5 0 0 1-.5-.5V6"/>
  <path d="M11.5 14a2.5 2.5 0 0 1 2.5-2.5h2a2.5 2.5 0 0 1 0 5h-2a2.5 2.5 0 0 1-2.5-2.5z"/>
</svg>
