<svg width="32" height="32" viewBox="0 0 32 32" fill="none" xmlns="http://www.w3.org/2000/svg">
  <path d="M6 16.5C6 11.5 9 8.5 16 8.5C23 8.5 26 11.5 26 16.5C26 21.5 23 24.5 16 24.5C9 24.5 6 21.5 6 16.5Z" stroke="#10B981" stroke-width="2"/>
  <path d="M16 17.5C16.8284 17.5 17.5 16.8284 17.5 16C17.5 15.1716 16.8284 14.5 16 14.5C15.1716 14.5 14.5 15.1716 14.5 16C14.5 16.8284 15.1716 17.5 16 17.5Z" fill="#10B981"/>
  <path d="M16 8.5V3M16 29V24.5M6 16.5H2M30 16.5H26" stroke="#10B981" stroke-width="2" stroke-linecap="round"/>
</svg>